<svg width="24" height="24" viewBox="0 0 24 24" fill="none" xmlns="http://www.w3.org/2000/svg">
<g clip-path="url(#clip0_423_22)">
<path d="M13.162 1.74317C12.2192 2.686 11.9999 4.06738 11.9999 6.39159C14.3241 6.39159 15.7055 6.17232 16.6483 5.22949C17.5912 4.28666 17.5912 2.686 16.6483 1.74317C15.7055 0.800336 14.1048 0.800334 13.162 1.74317Z" stroke="white"/>
<path d="M10.8378 1.74317C11.7806 2.686 11.9999 4.06738 11.9999 6.39159C9.67565 6.39159 8.29427 6.17232 7.35144 5.22949C6.4086 4.28666 6.4086 2.686 7.35144 1.74317C8.29427 0.800336 9.89494 0.800334 10.8378 1.74317Z" stroke="white"/>
<rect x="3.52612" y="13.3159" width="16.9474" height="9.68422" stroke="white"/>
<rect x="3.04199" y="6.29468" width="17.9158" height="7.02106" stroke="white"/>
<path d="M12 6.05273L12 23.0001" stroke="white"/>
<path d="M11.9999 6.29468C9.57886 6.29468 8.00517 9.19994 9.33675 13.0736C10.402 16.1726 8.97359 18.2386 8.12622 18.8842" stroke="white"/>
<path d="M12 6.29468C15.1474 6.29468 17.2053 10.7736 15.1474 14.7684" stroke="white"/>
</g>
<defs>
<clipPath id="clip0_423_22">
<rect width="24" height="24" fill="white"/>
</clipPath>
</defs>
</svg>
